<?xml version="1.0" encoding="UTF-8"?><svg id="Layer_1" xmlns="http://www.w3.org/2000/svg" viewBox="0 0 490.32 55.93"><defs><style>.cls-1{fill:#2c3386;}</style></defs><path class="cls-1" d="M4.46.43v8.46h5.21V.43h4.46v22.13h-4.46v-9.83h-5.21v9.83H0V.43h4.46Z"/><path class="cls-1" d="M20.77,16.21c0,.5.04.98.11,1.44.07.46.19.88.36,1.24.17.36.38.65.65.87.27.22.6.33.99.33.72,0,1.25-.26,1.58-.77s.56-1.3.68-2.36h3.84c-.08,1.94-.6,3.42-1.55,4.43-.95,1.01-2.45,1.52-4.5,1.52-1.55,0-2.76-.26-3.63-.77-.87-.52-1.51-1.2-1.92-2.05-.41-.85-.67-1.8-.76-2.85-.09-1.05-.14-2.11-.14-3.16,0-1.12.08-2.19.23-3.22.15-1.03.46-1.95.93-2.76.47-.81,1.13-1.45,2-1.92.87-.48,2.03-.71,3.47-.71,1.24,0,2.26.2,3.05.6.8.4,1.42.97,1.88,1.7.45.73.76,1.62.93,2.67.17,1.04.25,2.21.25,3.49v.96h-8.46v1.33ZM25.02,10.65c-.06-.49-.17-.9-.33-1.24-.15-.34-.37-.6-.65-.77-.28-.18-.64-.26-1.07-.26s-.79.1-1.07.29c-.28.2-.5.45-.67.77-.17.32-.28.68-.36,1.07-.07.39-.11.79-.11,1.18v.65h4.37c-.02-.64-.06-1.2-.12-1.69Z"/><path class="cls-1" d="M35.9.43v22.13h-4.28V.43h4.28Z"/><path class="cls-1" d="M43,5.89v1.77h.06c.48-.79,1.01-1.35,1.6-1.69.59-.34,1.32-.51,2.19-.51,1.76,0,3.05.69,3.88,2.06s1.24,3.61,1.24,6.71-.41,5.32-1.24,6.67-2.12,2.01-3.88,2.01c-.81,0-1.49-.15-2.06-.45s-1.08-.78-1.53-1.44h-.06v6.91h-4.28V5.89h4.09ZM43.6,18.34c.28.92.89,1.38,1.84,1.38s1.53-.46,1.81-1.38c.28-.92.42-2.29.42-4.11s-.14-3.19-.42-4.11c-.28-.92-.88-1.38-1.81-1.38s-1.57.46-1.84,1.38c-.28.92-.42,2.29-.42,4.11s.14,3.19.42,4.11Z"/><path class="cls-1" d="M66.43,9.3h.06L72.14.43h4.84l-6.01,9.49,6.7,12.65h-5.02l-4.56-9.08-1.64,2.51v6.57h-4.46V.43h4.46v8.87Z"/><path class="cls-1" d="M82.15,16.21c0,.5.04.98.11,1.44.07.46.19.88.36,1.24.17.36.38.65.65.87.27.22.6.33.99.33.72,0,1.25-.26,1.58-.77s.56-1.3.68-2.36h3.84c-.08,1.94-.6,3.42-1.55,4.43-.95,1.01-2.45,1.52-4.5,1.52-1.55,0-2.76-.26-3.63-.77-.87-.52-1.51-1.2-1.92-2.05-.41-.85-.67-1.8-.76-2.85-.09-1.05-.14-2.11-.14-3.16,0-1.12.08-2.19.23-3.22.15-1.03.46-1.95.93-2.76.47-.81,1.13-1.45,2-1.92.87-.48,2.03-.71,3.47-.71,1.24,0,2.26.2,3.05.6.8.4,1.42.97,1.88,1.7.45.73.76,1.62.93,2.67.17,1.04.25,2.21.25,3.49v.96h-8.46v1.33ZM86.4,10.65c-.06-.49-.17-.9-.33-1.24-.15-.34-.37-.6-.65-.77-.28-.18-.64-.26-1.07-.26s-.79.1-1.07.29c-.28.2-.5.45-.67.77-.17.32-.28.68-.36,1.07-.07.39-.11.79-.11,1.18v.65h4.37c-.02-.64-.06-1.2-.12-1.69Z"/><path class="cls-1" d="M96.5,16.21c0,.5.04.98.11,1.44.07.46.19.88.36,1.24.17.36.38.65.65.87.27.22.6.33.99.33.72,0,1.25-.26,1.58-.77s.56-1.3.68-2.36h3.84c-.08,1.94-.6,3.42-1.55,4.43-.95,1.01-2.45,1.52-4.5,1.52-1.55,0-2.76-.26-3.63-.77-.87-.52-1.51-1.2-1.92-2.05-.41-.85-.67-1.8-.76-2.85-.09-1.05-.14-2.11-.14-3.16,0-1.12.08-2.19.23-3.22.15-1.03.46-1.95.93-2.76.47-.81,1.13-1.45,2-1.92.87-.48,2.03-.71,3.47-.71,1.24,0,2.26.2,3.05.6.8.4,1.42.97,1.88,1.7.45.73.76,1.62.93,2.67.17,1.04.25,2.21.25,3.49v.96h-8.46v1.33ZM100.75,10.65c-.06-.49-.17-.9-.33-1.24-.15-.34-.37-.6-.65-.77-.28-.18-.64-.26-1.07-.26s-.79.1-1.07.29c-.28.2-.5.45-.67.77-.17.32-.28.68-.36,1.07-.07.39-.11.79-.11,1.18v.65h4.37c-.02-.64-.06-1.2-.12-1.69Z"/><path class="cls-1" d="M111.29,5.89v1.77h.06c.48-.79,1.01-1.35,1.6-1.69.59-.34,1.32-.51,2.19-.51,1.76,0,3.05.69,3.88,2.06s1.24,3.61,1.24,6.71-.41,5.32-1.24,6.67-2.12,2.01-3.88,2.01c-.81,0-1.49-.15-2.06-.45s-1.08-.78-1.53-1.44h-.06v6.91h-4.28V5.89h4.09ZM111.89,18.34c.28.92.89,1.38,1.84,1.38s1.53-.46,1.81-1.38c.28-.92.42-2.29.42-4.11s-.14-3.19-.42-4.11c-.28-.92-.88-1.38-1.81-1.38s-1.57.46-1.84,1.38c-.28.92-.42,2.29-.42,4.11s.14,3.19.42,4.11Z"/><path class="cls-1" d="M130.03,6.87c.16-1.42.5-2.63,1.02-3.64.53-1.01,1.29-1.8,2.28-2.37.99-.57,2.32-.85,4-.85s3.01.28,4,.85c.99.57,1.75,1.36,2.28,2.37.53,1.01.87,2.23,1.02,3.64.16,1.42.23,2.96.23,4.63s-.08,3.24-.23,4.65c-.15,1.41-.5,2.61-1.02,3.63-.53,1.01-1.29,1.79-2.28,2.33-.99.54-2.33.81-4,.81s-3.01-.27-4-.81c-.99-.54-1.75-1.31-2.28-2.33-.53-1.01-.87-2.22-1.02-3.63-.15-1.41-.23-2.96-.23-4.65s.08-3.22.23-4.63ZM134.37,15.3c.07,1.04.22,1.89.43,2.54.22.65.53,1.13.93,1.43s.94.45,1.6.45,1.19-.15,1.6-.45c.4-.3.71-.78.93-1.43s.36-1.5.43-2.54c.07-1.04.11-2.31.11-3.8s-.04-2.75-.11-3.78c-.07-1.03-.22-1.88-.43-2.54-.22-.66-.53-1.14-.93-1.44-.4-.3-.94-.45-1.6-.45s-1.19.15-1.6.45c-.4.3-.71.78-.93,1.44-.22.66-.36,1.51-.43,2.54-.07,1.03-.11,2.29-.11,3.78s.04,2.75.11,3.8Z"/><path class="cls-1" d="M155.87,20.61c-.45.83-1.04,1.42-1.77,1.77-.72.35-1.55.53-2.48.53-1.36,0-2.41-.36-3.15-1.07-.73-.71-1.1-1.91-1.1-3.58V5.89h4.28v11.5c0,.87.14,1.47.43,1.81.29.34.75.51,1.4.51,1.51,0,2.26-.92,2.26-2.76V5.89h4.28v16.68h-4.09v-1.95h-.06Z"/><path class="cls-1" d="M166.96,5.89v2.23h.06c.43-.81.96-1.45,1.58-1.94.62-.49,1.37-.73,2.26-.73.12,0,.25,0,.39.02.13.01.26.03.39.05v4.09c-.23-.02-.45-.04-.67-.05-.22-.01-.44-.02-.67-.02-.37,0-.74.05-1.12.15-.37.1-.71.27-1.02.51-.31.24-.56.55-.74.93s-.28.85-.28,1.41v10.01h-4.28V5.89h4.09Z"/><path class="cls-1" d="M193.13.43v3.66h-7.9v5.21h7.44v3.66h-7.44v9.61h-4.46V.43h12.37Z"/><path class="cls-1" d="M194.15,10.45c.23-1.1.6-2.01,1.12-2.74.52-.73,1.19-1.29,2.03-1.67.84-.38,1.86-.57,3.08-.57,1.28-.02,2.35.15,3.19.51.85.36,1.52.91,2.02,1.66.5.74.85,1.66,1.05,2.76.21,1.1.31,2.38.31,3.84s-.11,2.69-.34,3.78c-.23,1.1-.6,2.01-1.12,2.74-.52.73-1.19,1.28-2.03,1.63s-1.87.53-3.08.53c-1.28.02-2.35-.14-3.19-.48-.85-.34-1.52-.88-2.02-1.61-.5-.73-.85-1.65-1.05-2.76-.21-1.1-.31-2.38-.31-3.83s.11-2.69.34-3.78ZM198.15,16.58c.04.72.14,1.34.29,1.86.16.52.39.92.7,1.21.31.29.72.43,1.24.43.87,0,1.47-.45,1.8-1.36.33-.91.5-2.41.5-4.49s-.17-3.59-.5-4.5c-.33-.91-.93-1.36-1.8-1.36-.52,0-.93.15-1.24.43-.31.29-.54.69-.7,1.21-.15.52-.25,1.14-.29,1.86-.04.72-.06,1.51-.06,2.36s.02,1.63.06,2.36Z"/><path class="cls-1" d="M213.34,5.89v2.23h.06c.43-.81.96-1.45,1.58-1.94.62-.49,1.37-.73,2.26-.73.12,0,.25,0,.39.02.13.01.26.03.39.05v4.09c-.23-.02-.45-.04-.67-.05-.22-.01-.44-.02-.67-.02-.37,0-.74.05-1.12.15-.37.1-.71.27-1.02.51-.31.24-.56.55-.74.93s-.28.85-.28,1.41v10.01h-4.28V5.89h4.09Z"/><path class="cls-1" d="M228.06,20.61c-.45.83-1.04,1.42-1.77,1.77-.72.35-1.55.53-2.48.53-1.36,0-2.41-.36-3.15-1.07-.73-.71-1.1-1.91-1.1-3.58V5.89h4.28v11.5c0,.87.14,1.47.43,1.81.29.34.75.51,1.4.51,1.51,0,2.26-.92,2.26-2.76V5.89h4.28v16.68h-4.09v-1.95h-.06Z"/><path class="cls-1" d="M239.16,5.89v1.71h.06c.54-.76,1.14-1.31,1.81-1.64.67-.33,1.47-.5,2.4-.5.99,0,1.82.23,2.49.68.67.46,1.12,1.12,1.35,1.98h.06c.33-.89.86-1.56,1.6-2s1.61-.67,2.62-.67c1.43,0,2.47.43,3.15,1.29.67.86,1.01,2.09,1.01,3.7v12.12h-4.28v-11.66c0-.7-.13-1.24-.39-1.61-.26-.37-.69-.56-1.29-.56-.68,0-1.22.23-1.63.68-.4.46-.6,1.18-.6,2.17v10.97h-4.28v-11.66c0-.7-.13-1.24-.39-1.61-.26-.37-.69-.56-1.29-.56-.68,0-1.22.23-1.63.68-.4.46-.6,1.18-.6,2.17v10.97h-4.28V5.89h4.09Z"/><path class="cls-1" d="M277.94,4.09h-4.84v18.48h-4.46V4.09h-4.84V.43h14.14v3.66Z"/><path class="cls-1" d="M284.02.43v7.16h.06c.83-1.43,2.18-2.14,4.06-2.14,1.36,0,2.41.37,3.15,1.12.73.74,1.1,1.95,1.1,3.63v12.37h-4.28v-11.5c0-.87-.14-1.47-.43-1.81-.29-.34-.75-.51-1.4-.51-1.51,0-2.26.92-2.26,2.76v11.07h-4.28V.43h4.28Z"/><path class="cls-1" d="M299.33,5.89v2.23h.06c.43-.81.96-1.45,1.58-1.94.62-.49,1.37-.73,2.26-.73.12,0,.25,0,.39.02.13.01.26.03.39.05v4.09c-.23-.02-.45-.04-.67-.05-.22-.01-.44-.02-.67-.02-.37,0-.74.05-1.12.15-.37.1-.71.27-1.02.51-.31.24-.56.55-.74.93-.19.38-.28.85-.28,1.41v10.01h-4.28V5.89h4.09Z"/><path class="cls-1" d="M310,.19v3.66h-4.28V.19h4.28ZM310,5.89v16.68h-4.28V5.89h4.28Z"/><path class="cls-1" d="M325.19,5.89l-4.19,16.68h-4.96l-4.31-16.68h4.46l2.39,11.94h.06l2.26-11.94h4.28Z"/><path class="cls-1" d="M331.2.19v3.66h-4.28V.19h4.28ZM331.2,5.89v16.68h-4.28V5.89h4.28Z"/><path class="cls-1" d="M338.3,5.89v1.95h.06c.45-.83,1.04-1.43,1.77-1.81.72-.38,1.55-.57,2.48-.57,1.36,0,2.41.37,3.15,1.12.73.74,1.1,1.95,1.1,3.63v12.37h-4.28v-11.5c0-.87-.14-1.47-.43-1.81-.29-.34-.75-.51-1.4-.51-1.51,0-2.26.92-2.26,2.76v11.07h-4.28V5.89h4.09Z"/><path class="cls-1" d="M362.2,21.73c0,2.15-.53,3.76-1.6,4.84-1.06,1.07-2.85,1.61-5.35,1.61-1.82,0-3.22-.39-4.2-1.16-.98-.78-1.47-1.88-1.47-3.3h4.09c0,.54.22.96.65,1.27.21.14.43.26.67.34.24.08.49.12.76.12.87,0,1.48-.28,1.83-.84s.53-1.25.53-2.08v-2.2h-.06c-.43.62-.97,1.12-1.6,1.49-.63.37-1.29.56-1.97.56-1.7,0-2.97-.65-3.83-1.94-.86-1.29-1.29-3.46-1.29-6.49,0-.97.06-1.96.17-2.98.11-1.01.35-1.93.71-2.74.36-.82.89-1.48,1.58-2,.69-.52,1.62-.77,2.77-.77.6,0,1.22.17,1.86.5.64.33,1.17.93,1.58,1.8h.06v-1.86h4.09v15.84ZM353.72,16.4c.05.52.16.98.31,1.38.15.4.37.72.65.96.28.24.65.36,1.1.36s.83-.12,1.13-.36c.3-.24.54-.56.71-.98.17-.41.3-.91.37-1.5.07-.59.11-1.23.11-1.94,0-2.02-.16-3.46-.48-4.31-.32-.85-.9-1.27-1.75-1.27-.48,0-.86.1-1.15.31-.29.21-.52.54-.68,1.01-.17.46-.27,1.08-.33,1.86s-.08,1.72-.08,2.84c0,.58.03,1.13.08,1.64Z"/><path class="cls-1" d="M369.55,6.42v4.84h-4.09v-4.84h4.09ZM369.55,17.73v4.84h-4.09v-4.84h4.09Z"/><path class="cls-1" d="M7.81,28.43c1.14,0,2.09.19,2.87.57.77.38,1.4.88,1.88,1.5.48.62.82,1.33,1.02,2.12.21.8.31,1.61.31,2.43,0,1.14-.17,2.13-.51,2.98-.34.85-.82,1.54-1.43,2.08-.61.54-1.35.94-2.22,1.21-.87.27-1.83.4-2.88.4h-2.39v8.83H0v-22.13h7.81ZM6.45,38.45c.89,0,1.61-.27,2.15-.81.55-.54.82-1.37.82-2.51s-.24-1.96-.71-2.54c-.48-.58-1.27-.87-2.39-.87h-1.86v6.73h1.98Z"/><path class="cls-1" d="M20.4,28.43v22.13h-4.28v-22.13h4.28Z"/><path class="cls-1" d="M27.06,44.21c0,.5.04.98.11,1.44.07.46.19.88.36,1.24.17.36.38.65.65.87.27.22.6.33.99.33.72,0,1.25-.26,1.58-.77s.56-1.3.68-2.36h3.84c-.08,1.94-.6,3.42-1.55,4.43-.95,1.01-2.45,1.52-4.5,1.52-1.55,0-2.76-.26-3.63-.77-.87-.52-1.51-1.2-1.92-2.05-.41-.85-.67-1.8-.76-2.85-.09-1.05-.14-2.11-.14-3.16,0-1.12.08-2.19.23-3.22.15-1.03.46-1.95.93-2.76.47-.81,1.13-1.45,2-1.92.87-.47,2.03-.71,3.47-.71,1.24,0,2.26.2,3.05.6.8.4,1.42.97,1.88,1.71.45.73.76,1.62.93,2.67.17,1.04.25,2.21.25,3.49v.96h-8.46v1.33ZM31.31,38.65c-.06-.49-.17-.9-.33-1.24-.15-.34-.37-.6-.65-.78-.28-.17-.64-.26-1.07-.26s-.79.1-1.07.29c-.28.2-.5.46-.67.77-.17.32-.28.68-.36,1.07-.07.39-.11.79-.11,1.18v.65h4.37c-.02-.64-.06-1.2-.12-1.69Z"/><path class="cls-1" d="M37.73,38.6c0-.97.15-1.78.46-2.43s.73-1.18,1.26-1.58c.53-.4,1.15-.69,1.86-.87.71-.17,1.47-.26,2.28-.26,1.28,0,2.31.12,3.1.37.79.25,1.4.6,1.83,1.05.43.45.73,1,.88,1.63.16.63.23,1.32.23,2.06v8.77c0,.79.04,1.39.11,1.83.07.43.21.9.42,1.39h-4.09c-.14-.27-.25-.55-.33-.85-.07-.3-.14-.59-.2-.88h-.06c-.5.87-1.07,1.43-1.72,1.69-.65.26-1.49.39-2.53.39-.74,0-1.37-.13-1.89-.39-.52-.26-.93-.61-1.24-1.07-.31-.45-.54-.97-.68-1.53-.15-.57-.22-1.13-.22-1.69,0-.79.08-1.46.25-2.03.17-.57.42-1.05.76-1.46.34-.4.77-.74,1.3-1.01.53-.27,1.16-.51,1.91-.71l2.42-.65c.64-.17,1.08-.39,1.33-.68s.37-.71.37-1.27c0-.64-.15-1.14-.45-1.5-.3-.36-.81-.54-1.53-.54-.66,0-1.16.2-1.49.59-.33.39-.5.92-.5,1.58v.46h-3.84v-.4ZM44.61,42.77c-.33.13-.63.23-.9.29-.87.19-1.49.5-1.86.93-.37.43-.56,1.02-.56,1.77,0,.64.12,1.19.37,1.64.25.46.66.68,1.24.68.29,0,.59-.05.9-.14.31-.09.59-.24.85-.45.26-.21.47-.47.64-.81s.25-.72.25-1.18v-3.29c-.29.23-.6.41-.93.54Z"/><path class="cls-1" d="M55.8,45.67c0,.72.19,1.31.57,1.75s.94.67,1.66.67c.66,0,1.19-.17,1.58-.5.39-.33.59-.83.59-1.49,0-.54-.15-.95-.46-1.22s-.67-.5-1.08-.67l-3.01-1.08c-1.18-.41-2.07-1-2.67-1.75-.6-.75-.9-1.72-.9-2.9,0-.68.11-1.33.34-1.94.23-.61.59-1.14,1.08-1.6.5-.45,1.13-.82,1.91-1.08s1.71-.4,2.81-.4c1.94,0,3.38.41,4.31,1.24.93.83,1.4,2,1.4,3.5v.68h-3.84c0-.87-.14-1.5-.42-1.91-.28-.4-.77-.6-1.47-.6-.54,0-1.01.15-1.41.45-.4.3-.6.75-.6,1.35,0,.41.13.79.39,1.12.26.33.75.61,1.47.84l2.57.87c1.34.46,2.29,1.05,2.85,1.78.56.73.84,1.73.84,2.99,0,.89-.15,1.66-.46,2.31-.31.65-.74,1.19-1.29,1.63-.55.43-1.2.74-1.95.93-.75.19-1.59.28-2.5.28-1.2,0-2.2-.11-2.99-.34-.8-.23-1.43-.57-1.89-1.02-.46-.45-.79-1.01-.98-1.66-.19-.65-.28-1.38-.28-2.19v-.59h3.84v.56Z"/><path class="cls-1" d="M70.09,44.21c0,.5.04.98.11,1.44.07.46.19.88.36,1.24.17.36.38.65.65.87.27.22.6.33.99.33.72,0,1.25-.26,1.58-.77s.56-1.3.68-2.36h3.84c-.08,1.94-.6,3.42-1.55,4.43-.95,1.01-2.45,1.52-4.5,1.52-1.55,0-2.76-.26-3.63-.77-.87-.52-1.51-1.2-1.92-2.05-.41-.85-.67-1.8-.76-2.85-.09-1.05-.14-2.11-.14-3.16,0-1.12.08-2.19.23-3.22.15-1.03.46-1.95.93-2.76.47-.81,1.13-1.45,2-1.92.87-.47,2.03-.71,3.47-.71,1.24,0,2.26.2,3.05.6.8.4,1.42.97,1.88,1.71.45.73.76,1.62.93,2.67.17,1.04.25,2.21.25,3.49v.96h-8.46v1.33ZM74.34,38.65c-.06-.49-.17-.9-.33-1.24-.15-.34-.37-.6-.65-.78-.28-.17-.64-.26-1.07-.26s-.79.1-1.07.29c-.28.2-.5.46-.67.77-.17.32-.28.68-.36,1.07-.07.39-.11.79-.11,1.18v.65h4.37c-.02-.64-.06-1.2-.12-1.69Z"/><path class="cls-1" d="M97.23,32.39c-.38-.73-1.08-1.1-2.09-1.1-.56,0-1.02.15-1.38.45-.36.3-.65.79-.85,1.46-.21.67-.35,1.55-.43,2.64s-.12,2.41-.12,3.98c0,1.67.06,3.03.17,4.06.11,1.03.29,1.83.53,2.4.24.57.54.95.9,1.15.36.2.78.29,1.26.29.39,0,.76-.07,1.1-.2.34-.13.64-.4.88-.81.25-.4.44-.97.59-1.71.14-.73.22-1.7.22-2.9h4.46c0,1.2-.09,2.34-.28,3.41s-.53,2.01-1.04,2.82c-.51.81-1.22,1.44-2.14,1.89-.92.45-2.11.68-3.58.68-1.67,0-3.01-.27-4-.81-.99-.54-1.75-1.31-2.28-2.33-.53-1.01-.87-2.22-1.02-3.63-.15-1.41-.23-2.96-.23-4.65s.08-3.22.23-4.63c.16-1.42.5-2.63,1.02-3.64.53-1.01,1.29-1.8,2.28-2.37.99-.57,2.32-.85,4-.85s2.85.26,3.77.78,1.61,1.17,2.06,1.97.74,1.65.85,2.57c.11.92.17,1.78.17,2.59h-4.46c0-1.61-.19-2.78-.57-3.52Z"/><path class="cls-1" d="M104.65,38.45c.23-1.09.6-2.01,1.12-2.74.52-.73,1.19-1.29,2.03-1.67.84-.38,1.86-.57,3.08-.57,1.28-.02,2.35.15,3.19.51.85.36,1.52.92,2.02,1.66.5.74.85,1.66,1.05,2.76.21,1.1.31,2.38.31,3.84s-.11,2.69-.34,3.78c-.23,1.1-.6,2.01-1.12,2.74-.52.73-1.19,1.28-2.03,1.63-.84.35-1.87.53-3.08.53-1.28.02-2.35-.14-3.19-.48-.85-.34-1.52-.88-2.02-1.61-.5-.73-.85-1.65-1.05-2.76-.21-1.11-.31-2.38-.31-3.83s.11-2.69.34-3.78ZM108.65,44.58c.04.72.14,1.34.29,1.86.16.52.39.92.7,1.21.31.29.72.43,1.24.43.87,0,1.47-.45,1.8-1.36s.5-2.41.5-4.5-.17-3.59-.5-4.5-.93-1.36-1.8-1.36c-.52,0-.93.15-1.24.43-.31.29-.54.69-.7,1.21-.15.52-.25,1.14-.29,1.86-.04.72-.06,1.51-.06,2.36s.02,1.63.06,2.36Z"/><path class="cls-1" d="M123.84,33.89v1.95h.06c.45-.83,1.04-1.43,1.77-1.81.72-.38,1.55-.57,2.48-.57,1.36,0,2.41.37,3.15,1.12.73.74,1.1,1.95,1.1,3.63v12.37h-4.28v-11.5c0-.87-.14-1.47-.43-1.81s-.75-.51-1.4-.51c-1.51,0-2.26.92-2.26,2.76v11.07h-4.28v-16.68h4.09Z"/><path class="cls-1" d="M138.38,45.67c0,.72.19,1.31.57,1.75s.94.67,1.66.67c.66,0,1.19-.17,1.58-.5.39-.33.59-.83.59-1.49,0-.54-.15-.95-.46-1.22s-.67-.5-1.08-.67l-3.01-1.08c-1.18-.41-2.07-1-2.67-1.75-.6-.75-.9-1.72-.9-2.9,0-.68.11-1.33.34-1.94.23-.61.59-1.14,1.08-1.6.5-.45,1.13-.82,1.91-1.08s1.71-.4,2.81-.4c1.94,0,3.38.41,4.31,1.24.93.83,1.4,2,1.4,3.5v.68h-3.84c0-.87-.14-1.5-.42-1.91-.28-.4-.77-.6-1.47-.6-.54,0-1.01.15-1.41.45-.4.3-.6.75-.6,1.35,0,.41.13.79.39,1.12.26.33.75.61,1.47.84l2.57.87c1.34.46,2.29,1.05,2.85,1.78.56.73.84,1.73.84,2.99,0,.89-.15,1.66-.46,2.31-.31.65-.74,1.19-1.29,1.63-.55.43-1.2.74-1.95.93-.75.19-1.59.28-2.5.28-1.2,0-2.2-.11-2.99-.34-.8-.23-1.43-.57-1.89-1.02-.46-.45-.79-1.01-.98-1.66-.19-.65-.28-1.38-.28-2.19v-.59h3.84v.56Z"/><path class="cls-1" d="M153.45,28.19v3.66h-4.28v-3.66h4.28ZM153.45,33.89v16.68h-4.28v-16.68h4.28Z"/><path class="cls-1" d="M164.95,48.8c-.48.79-1.01,1.33-1.6,1.64-.59.31-1.32.46-2.19.46-1.76,0-3.05-.67-3.88-2.01-.83-1.34-1.24-3.57-1.24-6.67s.41-5.34,1.24-6.71c.83-1.37,2.12-2.06,3.88-2.06.81,0,1.49.17,2.06.5.57.33,1.08.83,1.53,1.49h.06v-7.01h4.28v22.13h-4.09v-1.77h-.06ZM160.75,46.34c.28.92.88,1.38,1.81,1.38s1.57-.46,1.84-1.38c.28-.92.42-2.29.42-4.11s-.14-3.19-.42-4.11c-.28-.92-.89-1.38-1.84-1.38s-1.53.46-1.81,1.38c-.28.92-.42,2.29-.42,4.11s.14,3.19.42,4.11Z"/><path class="cls-1" d="M175.61,44.21c0,.5.04.98.11,1.44.07.46.19.88.36,1.24.17.36.38.65.65.87.27.22.6.33.99.33.72,0,1.25-.26,1.58-.77s.56-1.3.68-2.36h3.84c-.08,1.94-.6,3.42-1.55,4.43-.95,1.01-2.45,1.52-4.5,1.52-1.55,0-2.76-.26-3.63-.77-.87-.52-1.51-1.2-1.92-2.05-.41-.85-.67-1.8-.76-2.85-.09-1.05-.14-2.11-.14-3.16,0-1.12.08-2.19.23-3.22.15-1.03.46-1.95.93-2.76.47-.81,1.13-1.45,2-1.92.87-.47,2.03-.71,3.47-.71,1.24,0,2.26.2,3.05.6.8.4,1.42.97,1.88,1.71.45.73.76,1.62.93,2.67.17,1.04.25,2.21.25,3.49v.96h-8.46v1.33ZM179.86,38.65c-.06-.49-.17-.9-.33-1.24-.15-.34-.37-.6-.65-.78-.28-.17-.64-.26-1.07-.26s-.79.1-1.07.29c-.28.2-.5.46-.67.77-.17.32-.28.68-.36,1.07-.07.39-.11.79-.11,1.18v.65h4.37c-.02-.64-.06-1.2-.12-1.69Z"/><path class="cls-1" d="M190.4,33.89v2.23h.06c.43-.81.96-1.45,1.58-1.94.62-.49,1.37-.73,2.26-.73.12,0,.25,0,.39.02.13.01.26.03.39.05v4.09c-.23-.02-.45-.04-.67-.05-.22,0-.44-.01-.67-.01-.37,0-.74.05-1.12.15-.37.1-.71.27-1.02.51-.31.24-.56.55-.74.93-.19.38-.28.85-.28,1.41v10.01h-4.28v-16.68h4.09Z"/><path class="cls-1" d="M204.04,38.6c0-.97.15-1.78.46-2.43s.73-1.18,1.26-1.58c.53-.4,1.15-.69,1.86-.87.71-.17,1.47-.26,2.28-.26,1.28,0,2.31.12,3.1.37.79.25,1.4.6,1.83,1.05.43.45.73,1,.88,1.63.16.63.23,1.32.23,2.06v8.77c0,.79.04,1.39.11,1.83.07.43.21.9.42,1.39h-4.09c-.14-.27-.25-.55-.33-.85-.07-.3-.14-.59-.2-.88h-.06c-.5.87-1.07,1.43-1.72,1.69-.65.26-1.49.39-2.53.39-.74,0-1.37-.13-1.89-.39-.52-.26-.93-.61-1.24-1.07-.31-.45-.54-.97-.68-1.53-.15-.57-.22-1.13-.22-1.69,0-.79.08-1.46.25-2.03.17-.57.42-1.05.76-1.46.34-.4.77-.74,1.3-1.01.53-.27,1.16-.51,1.91-.71l2.42-.65c.64-.17,1.08-.39,1.33-.68s.37-.71.37-1.27c0-.64-.15-1.14-.45-1.5-.3-.36-.81-.54-1.53-.54-.66,0-1.16.2-1.49.59-.33.39-.5.92-.5,1.58v.46h-3.84v-.4ZM210.92,42.77c-.33.13-.63.23-.9.29-.87.19-1.49.5-1.86.93-.37.43-.56,1.02-.56,1.77,0,.64.12,1.19.37,1.64.25.46.66.68,1.24.68.29,0,.59-.05.9-.14.31-.09.59-.24.85-.45.26-.21.47-.47.64-.81s.25-.72.25-1.18v-3.29c-.29.23-.6.41-.93.54Z"/><path class="cls-1" d="M233.27,28.43l3.16,15.62h.06l3.19-15.62h6.6v22.13h-4.09v-17.67h-.06l-3.94,17.67h-3.47l-3.94-17.67h-.06v17.67h-4.09v-22.13h6.63Z"/><path class="cls-1" d="M249.14,38.45c.23-1.09.6-2.01,1.12-2.74s1.19-1.29,2.03-1.67c.84-.38,1.87-.57,3.08-.57,1.28-.02,2.34.15,3.19.51.85.36,1.52.92,2.02,1.66.5.74.85,1.66,1.05,2.76.21,1.1.31,2.38.31,3.84s-.11,2.69-.34,3.78-.6,2.01-1.12,2.74-1.19,1.28-2.03,1.63c-.84.35-1.87.53-3.08.53-1.28.02-2.35-.14-3.19-.48-.85-.34-1.52-.88-2.01-1.61-.5-.73-.85-1.65-1.05-2.76-.21-1.11-.31-2.38-.31-3.83s.11-2.69.34-3.78ZM253.14,44.58c.04.72.14,1.34.29,1.86.15.52.39.92.7,1.21.31.29.72.43,1.24.43.87,0,1.47-.45,1.8-1.36.33-.91.5-2.41.5-4.5s-.17-3.59-.5-4.5c-.33-.91-.93-1.36-1.8-1.36-.52,0-.93.15-1.24.43-.31.29-.54.69-.7,1.21-.16.52-.25,1.14-.29,1.86-.04.72-.06,1.51-.06,2.36s.02,1.63.06,2.36Z"/><path class="cls-1" d="M268.33,33.89v1.95h.06c.45-.83,1.04-1.43,1.77-1.81.72-.38,1.55-.57,2.48-.57,1.36,0,2.41.37,3.15,1.12.73.74,1.1,1.95,1.1,3.63v12.37h-4.28v-11.5c0-.87-.14-1.47-.43-1.81-.29-.34-.75-.51-1.4-.51-1.51,0-2.26.92-2.26,2.76v11.07h-4.28v-16.68h4.09Z"/><path class="cls-1" d="M284.95,29.12v4.77h2.48v2.91h-2.48v9.02c0,.66.1,1.13.29,1.41.2.28.6.42,1.22.42.17,0,.33,0,.5-.02.17,0,.32-.03.46-.05v2.98c-.48,0-.94.02-1.38.05-.44.03-.91.05-1.41.05-.83,0-1.5-.06-2.03-.17-.53-.11-.93-.34-1.21-.68-.28-.34-.47-.79-.57-1.35-.1-.56-.15-1.26-.15-2.11v-9.55h-2.17v-2.91h2.17v-4.77h4.28Z"/><path class="cls-1" d="M293.19,28.43v7.16h.06c.83-1.43,2.18-2.14,4.06-2.14,1.36,0,2.41.37,3.15,1.12.73.74,1.1,1.95,1.1,3.63v12.37h-4.28v-11.5c0-.87-.14-1.47-.43-1.81-.29-.34-.75-.51-1.4-.51-1.51,0-2.26.92-2.26,2.76v11.07h-4.28v-22.13h4.28Z"/><path class="cls-1" d="M308.85,28.43v22.13h-4.28v-22.13h4.28Z"/><path class="cls-1" d="M312.97,52.83c.79,0,1.35-.21,1.69-.62.34-.41.54-.96.6-1.64l-4.68-16.68h4.46l2.48,11.53h.06l2.17-11.53h4.28l-4.03,15.56c-.37,1.38-.73,2.51-1.07,3.36s-.74,1.52-1.21,1.98-1.02.77-1.67.92c-.65.14-1.47.22-2.46.22h-1.74v-3.19c.37.06.74.09,1.12.09Z"/><path class="cls-1" d="M342.06,32.39c-.38-.73-1.08-1.1-2.09-1.1-.56,0-1.02.15-1.38.45-.36.3-.65.79-.85,1.46-.21.67-.35,1.55-.43,2.64-.08,1.08-.12,2.41-.12,3.98,0,1.67.06,3.03.17,4.06.11,1.03.29,1.83.53,2.4.24.57.54.95.9,1.15.36.2.78.29,1.26.29.39,0,.76-.07,1.1-.2.34-.13.63-.4.88-.81s.44-.97.59-1.71.22-1.7.22-2.9h4.46c0,1.2-.09,2.34-.28,3.41s-.53,2.01-1.04,2.82c-.51.81-1.22,1.44-2.14,1.89s-2.11.68-3.58.68c-1.67,0-3.01-.27-4-.81s-1.75-1.31-2.28-2.33c-.53-1.01-.87-2.22-1.02-3.63s-.23-2.96-.23-4.65.08-3.22.23-4.63c.16-1.42.5-2.63,1.02-3.64.53-1.01,1.29-1.8,2.28-2.37.99-.57,2.33-.85,4-.85s2.85.26,3.77.78c.92.52,1.61,1.17,2.06,1.97.45.8.74,1.65.85,2.57.11.92.17,1.78.17,2.59h-4.46c0-1.61-.19-2.78-.57-3.52Z"/><path class="cls-1" d="M349.49,38.45c.23-1.09.6-2.01,1.12-2.74s1.19-1.29,2.03-1.67c.84-.38,1.87-.57,3.08-.57,1.28-.02,2.34.15,3.19.51.85.36,1.52.92,2.02,1.66.5.74.85,1.66,1.05,2.76.21,1.1.31,2.38.31,3.84s-.11,2.69-.34,3.78-.6,2.01-1.12,2.74-1.19,1.28-2.03,1.63c-.84.35-1.87.53-3.08.53-1.28.02-2.35-.14-3.19-.48-.85-.34-1.52-.88-2.01-1.61-.5-.73-.85-1.65-1.05-2.76-.21-1.11-.31-2.38-.31-3.83s.11-2.69.34-3.78ZM353.49,44.58c.04.72.14,1.34.29,1.86.15.52.39.92.7,1.21.31.29.72.43,1.24.43.87,0,1.47-.45,1.8-1.36.33-.91.5-2.41.5-4.5s-.17-3.59-.5-4.5c-.33-.91-.93-1.36-1.8-1.36-.52,0-.93.15-1.24.43-.31.29-.54.69-.7,1.21-.16.52-.25,1.14-.29,1.86-.04.72-.06,1.51-.06,2.36s.02,1.63.06,2.36Z"/><path class="cls-1" d="M368.68,33.89v1.95h.06c.45-.83,1.04-1.43,1.77-1.81.72-.38,1.55-.57,2.48-.57,1.36,0,2.41.37,3.15,1.12.73.74,1.1,1.95,1.1,3.63v12.37h-4.28v-11.5c0-.87-.14-1.47-.43-1.81-.29-.34-.75-.51-1.4-.51-1.51,0-2.26.92-2.26,2.76v11.07h-4.28v-16.68h4.09Z"/><path class="cls-1" d="M385.29,29.12v4.77h2.48v2.91h-2.48v9.02c0,.66.1,1.13.29,1.41.2.28.6.42,1.22.42.17,0,.33,0,.5-.02.17,0,.32-.03.46-.05v2.98c-.48,0-.94.02-1.38.05-.44.03-.91.05-1.41.05-.83,0-1.5-.06-2.03-.17-.53-.11-.93-.34-1.21-.68-.28-.34-.47-.79-.57-1.35-.1-.56-.15-1.26-.15-2.11v-9.55h-2.17v-2.91h2.17v-4.77h4.28Z"/><path class="cls-1" d="M393.35,33.89v2.23h.06c.43-.81.96-1.45,1.58-1.94.62-.49,1.37-.73,2.26-.73.12,0,.25,0,.39.02.13.01.26.03.39.05v4.09c-.23-.02-.45-.04-.67-.05-.22,0-.44-.01-.67-.01-.37,0-.74.05-1.12.15-.37.1-.71.27-1.02.51-.31.24-.56.55-.74.93-.19.38-.28.85-.28,1.41v10.01h-4.28v-16.68h4.09Z"/><path class="cls-1" d="M404.02,28.19v3.66h-4.28v-3.66h4.28ZM404.02,33.89v16.68h-4.28v-16.68h4.28Z"/><path class="cls-1" d="M411.3,28.43v7.01h.06c.46-.66.97-1.16,1.54-1.49.57-.33,1.25-.5,2.06-.5,1.76,0,3.05.69,3.88,2.06.83,1.38,1.24,3.61,1.24,6.71s-.41,5.32-1.24,6.67c-.83,1.34-2.12,2.01-3.88,2.01-.87,0-1.6-.16-2.19-.46s-1.12-.86-1.6-1.64h-.06v1.77h-4.09v-22.13h4.28ZM411.72,46.34c.28.92.89,1.38,1.84,1.38s1.54-.46,1.81-1.38c.28-.92.42-2.29.42-4.11s-.14-3.19-.42-4.11c-.28-.92-.88-1.38-1.81-1.38s-1.57.46-1.84,1.38c-.28.92-.42,2.29-.42,4.11s.14,3.19.42,4.11Z"/><path class="cls-1" d="M431.02,48.61c-.46.83-1.04,1.42-1.77,1.77-.72.35-1.55.53-2.48.53-1.36,0-2.41-.36-3.15-1.07s-1.1-1.91-1.1-3.58v-12.37h4.28v11.5c0,.87.14,1.47.43,1.81s.75.51,1.4.51c1.51,0,2.26-.92,2.26-2.76v-11.07h4.28v16.68h-4.09v-1.95h-.06Z"/><path class="cls-1" d="M443.23,29.12v4.77h2.48v2.91h-2.48v9.02c0,.66.1,1.13.29,1.41.2.28.6.42,1.22.42.17,0,.33,0,.5-.02.17,0,.32-.03.46-.05v2.98c-.48,0-.94.02-1.38.05-.44.03-.91.05-1.41.05-.83,0-1.5-.06-2.03-.17-.53-.11-.93-.34-1.21-.68-.28-.34-.47-.79-.57-1.35-.1-.56-.15-1.26-.15-2.11v-9.55h-2.17v-2.91h2.17v-4.77h4.28Z"/><path class="cls-1" d="M451.63,28.19v3.66h-4.28v-3.66h4.28ZM451.63,33.89v16.68h-4.28v-16.68h4.28Z"/><path class="cls-1" d="M454.42,38.45c.23-1.09.6-2.01,1.12-2.74s1.19-1.29,2.03-1.67c.84-.38,1.87-.57,3.08-.57,1.28-.02,2.34.15,3.19.51.85.36,1.52.92,2.02,1.66.5.74.85,1.66,1.05,2.76.21,1.1.31,2.38.31,3.84s-.11,2.69-.34,3.78-.6,2.01-1.12,2.74-1.19,1.28-2.03,1.63c-.84.35-1.87.53-3.08.53-1.28.02-2.35-.14-3.19-.48-.85-.34-1.52-.88-2.01-1.61-.5-.73-.85-1.65-1.05-2.76-.21-1.11-.31-2.38-.31-3.83s.11-2.69.34-3.78ZM458.42,44.58c.04.72.14,1.34.29,1.86.15.52.39.92.7,1.21.31.29.72.43,1.24.43.87,0,1.47-.45,1.8-1.36.33-.91.5-2.41.5-4.5s-.17-3.59-.5-4.5c-.33-.91-.93-1.36-1.8-1.36-.52,0-.93.15-1.24.43-.31.29-.54.69-.7,1.21-.16.52-.25,1.14-.29,1.86-.04.72-.06,1.51-.06,2.36s.02,1.63.06,2.36Z"/><path class="cls-1" d="M473.61,33.89v1.95h.06c.45-.83,1.04-1.43,1.77-1.81.72-.38,1.55-.57,2.48-.57,1.36,0,2.41.37,3.15,1.12.73.74,1.1,1.95,1.1,3.63v12.37h-4.28v-11.5c0-.87-.14-1.47-.43-1.81-.29-.34-.75-.51-1.4-.51-1.51,0-2.26.92-2.26,2.76v11.07h-4.28v-16.68h4.09Z"/><path class="cls-1" d="M486.04,35.62v-7.19h4.28v7.19l-.59,8.77h-3.1l-.59-8.77ZM490.32,50.57h-4.28v-4.09h4.28v4.09Z"/></svg>