<?xml version="1.0" encoding="UTF-8"?><svg id="Outline_type" xmlns="http://www.w3.org/2000/svg" viewBox="0 0 543 70"><defs><style>.cls-1{fill:#fff;}.cls-1,.cls-2{stroke:#000;stroke-miterlimit:10;stroke-width:.25px;}.cls-2{fill:#d5f110;}</style></defs><path class="cls-1" d="M14.82,11.87v6.55h4.03v-6.55h3.46v17.14h-3.46v-7.61h-4.03v7.61h-3.46V11.87h3.46Z"/><path class="cls-1" d="M27.45,24.09c0,.38.03.76.08,1.12.06.36.15.68.28.96.13.28.3.5.5.67s.46.25.77.25c.56,0,.97-.2,1.22-.6.26-.4.43-1.01.53-1.82h2.98c-.06,1.5-.46,2.65-1.2,3.43-.74.78-1.9,1.18-3.48,1.18-1.2,0-2.14-.2-2.81-.6s-1.17-.93-1.49-1.58c-.32-.66-.52-1.39-.59-2.21-.07-.82-.11-1.63-.11-2.45,0-.86.06-1.7.18-2.5.12-.8.36-1.51.72-2.14s.88-1.12,1.55-1.49c.67-.37,1.57-.55,2.69-.55.96,0,1.75.16,2.36.47.62.31,1.1.75,1.45,1.32.35.57.59,1.26.72,2.06.13.81.19,1.71.19,2.7v.74h-6.55v1.03ZM30.73,19.78c-.05-.38-.13-.7-.25-.96-.12-.26-.29-.46-.5-.6-.22-.14-.49-.2-.83-.2s-.61.08-.83.23c-.22.15-.39.35-.52.6-.13.25-.22.52-.28.83-.06.3-.08.61-.08.91v.5h3.38c-.02-.5-.05-.93-.1-1.31Z"/><path class="cls-1" d="M39.16,11.87v17.14h-3.31V11.87h3.31Z"/><path class="cls-1" d="M44.65,16.09v1.37h.05c.37-.61.78-1.04,1.24-1.31s1.02-.4,1.69-.4c1.36,0,2.36.53,3,1.6.64,1.06.96,2.8.96,5.2s-.32,4.12-.96,5.16c-.64,1.04-1.64,1.56-3,1.56-.62,0-1.16-.12-1.6-.35s-.84-.6-1.19-1.12h-.05v5.35h-3.31v-17.06h3.17ZM45.12,25.73c.22.71.69,1.07,1.43,1.07s1.19-.36,1.4-1.07c.22-.71.32-1.77.32-3.18s-.11-2.47-.32-3.18c-.22-.71-.68-1.07-1.4-1.07s-1.21.36-1.43,1.07c-.22.71-.32,1.77-.32,3.18s.11,2.47.32,3.18Z"/><path class="cls-1" d="M62.8,18.73h.05l4.37-6.86h3.74l-4.66,7.34,5.18,9.79h-3.89l-3.53-7.03-1.27,1.94v5.09h-3.46V11.87h3.46v6.86Z"/><path class="cls-1" d="M74.96,24.09c0,.38.03.76.08,1.12.06.36.15.68.28.96.13.28.3.5.5.67s.46.25.77.25c.56,0,.97-.2,1.22-.6.26-.4.43-1.01.53-1.82h2.98c-.06,1.5-.46,2.65-1.2,3.43-.74.78-1.9,1.18-3.48,1.18-1.2,0-2.14-.2-2.81-.6s-1.17-.93-1.49-1.58c-.32-.66-.52-1.39-.59-2.21-.07-.82-.11-1.63-.11-2.45,0-.86.06-1.7.18-2.5.12-.8.36-1.51.72-2.14s.88-1.12,1.55-1.49c.67-.37,1.57-.55,2.69-.55.96,0,1.75.16,2.36.47.62.31,1.1.75,1.45,1.32.35.57.59,1.26.72,2.06.13.81.19,1.71.19,2.7v.74h-6.55v1.03ZM78.25,19.78c-.05-.38-.13-.7-.25-.96-.12-.26-.29-.46-.5-.6-.22-.14-.49-.2-.83-.2s-.61.08-.83.23c-.22.15-.39.35-.52.6-.13.25-.22.52-.28.83-.06.3-.08.61-.08.91v.5h3.38c-.02-.5-.05-.93-.1-1.31Z"/><path class="cls-1" d="M86.08,24.09c0,.38.03.76.08,1.12.06.36.15.68.28.96.13.28.3.5.5.67s.46.25.77.25c.56,0,.97-.2,1.22-.6.26-.4.43-1.01.53-1.82h2.98c-.06,1.5-.46,2.65-1.2,3.43-.74.78-1.9,1.18-3.48,1.18-1.2,0-2.14-.2-2.81-.6s-1.17-.93-1.49-1.58c-.32-.66-.52-1.39-.59-2.21-.07-.82-.11-1.63-.11-2.45,0-.86.06-1.7.18-2.5.12-.8.36-1.51.72-2.14s.88-1.12,1.55-1.49c.67-.37,1.57-.55,2.69-.55.96,0,1.75.16,2.36.47.62.31,1.1.75,1.45,1.32.35.57.59,1.26.72,2.06.13.81.19,1.71.19,2.7v.74h-6.55v1.03ZM89.36,19.78c-.05-.38-.13-.7-.25-.96-.12-.26-.29-.46-.5-.6-.22-.14-.49-.2-.83-.2s-.61.08-.83.23c-.22.15-.39.35-.52.6-.13.25-.22.52-.28.83-.06.3-.08.61-.08.91v.5h3.38c-.02-.5-.05-.93-.1-1.31Z"/><path class="cls-1" d="M97.52,16.09v1.37h.05c.37-.61.78-1.04,1.24-1.31s1.02-.4,1.69-.4c1.36,0,2.36.53,3,1.6.64,1.06.96,2.8.96,5.2s-.32,4.12-.96,5.16c-.64,1.04-1.64,1.56-3,1.56-.62,0-1.16-.12-1.6-.35s-.84-.6-1.19-1.12h-.05v5.35h-3.31v-17.06h3.17ZM97.99,25.73c.22.71.69,1.07,1.43,1.07s1.19-.36,1.4-1.07c.22-.71.32-1.77.32-3.18s-.11-2.47-.32-3.18c-.22-.71-.68-1.07-1.4-1.07s-1.21.36-1.43,1.07c-.22.71-.32,1.77-.32,3.18s.11,2.47.32,3.18Z"/><path class="cls-1" d="M112.03,16.85c.12-1.1.38-2.04.79-2.82.41-.78,1-1.4,1.76-1.84.77-.44,1.8-.66,3.1-.66s2.33.22,3.1.66c.77.44,1.36,1.05,1.76,1.84.41.78.67,1.72.79,2.82.12,1.1.18,2.29.18,3.59s-.06,2.51-.18,3.6c-.12,1.09-.38,2.02-.79,2.81-.41.78-1,1.38-1.76,1.8-.77.42-1.8.62-3.1.62s-2.33-.21-3.1-.62c-.77-.42-1.36-1.02-1.76-1.8-.41-.78-.67-1.72-.79-2.81s-.18-2.29-.18-3.6.06-2.49.18-3.59ZM115.39,23.38c.06.81.17,1.46.34,1.97.17.5.41.87.72,1.1.31.23.72.35,1.24.35s.92-.12,1.24-.35c.31-.23.55-.6.72-1.1.17-.5.28-1.16.34-1.97.06-.81.08-1.79.08-2.94s-.03-2.13-.08-2.93c-.06-.8-.17-1.46-.34-1.97s-.41-.88-.72-1.12c-.31-.23-.72-.35-1.24-.35s-.92.12-1.24.35c-.31.23-.55.6-.72,1.12s-.28,1.17-.34,1.97c-.06.8-.08,1.78-.08,2.93s.03,2.13.08,2.94Z"/><path class="cls-1" d="M132.04,27.49c-.35.64-.81,1.1-1.37,1.37s-1.2.41-1.92.41c-1.06,0-1.87-.28-2.44-.83-.57-.55-.85-1.48-.85-2.77v-9.58h3.31v8.9c0,.67.11,1.14.34,1.4s.58.4,1.08.4c1.17,0,1.75-.71,1.75-2.14v-8.57h3.31v12.91h-3.17v-1.51h-.05Z"/><path class="cls-1" d="M140.63,16.09v1.73h.05c.34-.62.74-1.12,1.22-1.5.48-.38,1.06-.56,1.75-.56.1,0,.2,0,.3.01.1,0,.2.02.3.04v3.17c-.18-.02-.35-.03-.52-.04-.17,0-.34-.01-.52-.01-.29,0-.58.04-.86.12s-.55.21-.79.4c-.24.18-.43.42-.58.72-.14.3-.22.66-.22,1.09v7.75h-3.31v-12.91h3.17Z"/><path class="cls-1" d="M160.88,11.87v2.83h-6.12v4.03h5.76v2.83h-5.76v7.44h-3.46V11.87h9.58Z"/><path class="cls-1" d="M161.68,19.62c.18-.85.46-1.56.86-2.12s.92-1,1.57-1.3c.65-.3,1.44-.44,2.39-.44.99-.02,1.82.12,2.47.4.66.28,1.18.71,1.56,1.28.38.58.66,1.29.82,2.14.16.85.24,1.84.24,2.98s-.09,2.08-.26,2.93c-.18.85-.46,1.56-.86,2.12-.4.57-.92.99-1.57,1.26s-1.44.41-2.39.41c-.99.02-1.82-.11-2.47-.37-.66-.26-1.18-.68-1.56-1.25s-.66-1.28-.82-2.14c-.16-.86-.24-1.84-.24-2.96s.09-2.08.26-2.93ZM164.77,24.37c.03.56.11,1.04.23,1.44.12.4.3.71.54.94.24.22.56.34.96.34.67,0,1.14-.35,1.39-1.06.26-.7.38-1.86.38-3.48s-.13-2.78-.38-3.48c-.26-.7-.72-1.06-1.39-1.06-.4,0-.72.11-.96.34-.24.22-.42.54-.54.94-.12.4-.2.88-.23,1.44-.03.56-.05,1.17-.05,1.82s.02,1.26.05,1.82Z"/><path class="cls-1" d="M176.53,16.09v1.73h.05c.34-.62.74-1.12,1.22-1.5.48-.38,1.06-.56,1.75-.56.1,0,.2,0,.3.01.1,0,.2.02.3.04v3.17c-.18-.02-.35-.03-.52-.04-.17,0-.34-.01-.52-.01-.29,0-.58.04-.86.12s-.55.21-.79.4c-.24.18-.43.42-.58.72-.14.3-.22.66-.22,1.09v7.75h-3.31v-12.91h3.17Z"/><path class="cls-1" d="M187.93,27.49c-.35.64-.81,1.1-1.37,1.37s-1.2.41-1.92.41c-1.06,0-1.87-.28-2.44-.83-.57-.55-.85-1.48-.85-2.77v-9.58h3.31v8.9c0,.67.11,1.14.34,1.4s.58.4,1.08.4c1.17,0,1.75-.71,1.75-2.14v-8.57h3.31v12.91h-3.17v-1.51h-.05Z"/><path class="cls-1" d="M196.52,16.09v1.32h.05c.42-.59.88-1.02,1.4-1.27.52-.26,1.14-.38,1.86-.38.77,0,1.41.18,1.93.53.52.35.87.86,1.04,1.54h.05c.26-.69.67-1.2,1.24-1.55.57-.34,1.24-.52,2.03-.52,1.1,0,1.92.33,2.44,1,.52.66.78,1.62.78,2.87v9.38h-3.31v-9.02c0-.54-.1-.96-.3-1.25-.2-.29-.53-.43-1-.43-.53,0-.95.18-1.26.53s-.47.91-.47,1.68v8.5h-3.31v-9.02c0-.54-.1-.96-.3-1.25-.2-.29-.53-.43-1-.43-.53,0-.95.18-1.26.53s-.47.91-.47,1.68v8.5h-3.31v-12.91h3.17Z"/><path class="cls-1" d="M226.55,14.7h-3.74v14.3h-3.46v-14.3h-3.74v-2.83h10.94v2.83Z"/><path class="cls-1" d="M231.25,11.87v5.54h.05c.64-1.1,1.69-1.66,3.14-1.66,1.06,0,1.87.29,2.44.86.57.58.85,1.51.85,2.81v9.58h-3.31v-8.9c0-.67-.11-1.14-.34-1.4-.22-.26-.58-.4-1.08-.4-1.17,0-1.75.71-1.75,2.14v8.57h-3.31V11.87h3.31Z"/><path class="cls-1" d="M243.11,16.09v1.73h.05c.34-.62.74-1.12,1.22-1.5.48-.38,1.06-.56,1.75-.56.1,0,.2,0,.3.01.1,0,.2.02.3.04v3.17c-.18-.02-.35-.03-.52-.04-.17,0-.34-.01-.52-.01-.29,0-.58.04-.86.12s-.55.21-.79.4c-.24.18-.43.42-.58.72-.14.3-.22.66-.22,1.09v7.75h-3.31v-12.91h3.17Z"/><path class="cls-1" d="M251.36,11.68v2.83h-3.31v-2.83h3.31ZM251.36,16.09v12.91h-3.31v-12.91h3.31Z"/><path class="cls-1" d="M263.12,16.09l-3.24,12.91h-3.84l-3.34-12.91h3.46l1.85,9.24h.05l1.75-9.24h3.31Z"/><path class="cls-1" d="M267.78,11.68v2.83h-3.31v-2.83h3.31ZM267.78,16.09v12.91h-3.31v-12.91h3.31Z"/><path class="cls-1" d="M273.27,16.09v1.51h.05c.35-.64.81-1.11,1.37-1.4.56-.3,1.2-.44,1.92-.44,1.06,0,1.87.29,2.44.86.57.58.85,1.51.85,2.81v9.58h-3.31v-8.9c0-.67-.11-1.14-.34-1.4-.22-.26-.58-.4-1.08-.4-1.17,0-1.75.71-1.75,2.14v8.57h-3.31v-12.91h3.17Z"/><path class="cls-1" d="M291.78,28.36c0,1.66-.41,2.91-1.24,3.74-.82.83-2.2,1.25-4.14,1.25-1.41,0-2.49-.3-3.25-.9-.76-.6-1.14-1.45-1.14-2.56h3.17c0,.42.17.74.5.98.16.11.33.2.52.26.18.06.38.1.59.1.67,0,1.14-.22,1.42-.65.27-.43.41-.97.41-1.61v-1.7h-.05c-.34.48-.75.86-1.24,1.15-.49.29-1,.43-1.52.43-1.31,0-2.3-.5-2.96-1.5-.66-1-1-2.68-1-5.03,0-.75.04-1.52.13-2.3.09-.78.27-1.49.55-2.12.28-.63.69-1.15,1.22-1.55.54-.4,1.25-.6,2.15-.6.46,0,.94.13,1.44.38.5.26.9.72,1.22,1.39h.05v-1.44h3.17v12.26ZM285.21,24.23c.04.4.12.76.24,1.07.12.31.29.56.5.74s.5.28.85.28.64-.09.88-.28c.23-.18.42-.44.55-.76.14-.32.23-.71.29-1.16.06-.46.08-.96.08-1.5,0-1.57-.12-2.68-.37-3.34-.25-.66-.7-.98-1.36-.98-.37,0-.66.08-.89.24-.22.16-.4.42-.53.78s-.21.84-.25,1.44-.06,1.33-.06,2.2c0,.45.02.87.06,1.27Z"/><path class="cls-1" d="M297.47,16.5v3.74h-3.17v-3.74h3.17ZM297.47,25.26v3.74h-3.17v-3.74h3.17Z"/><path class="cls-2" d="M157.41,38.87c.88,0,1.62.15,2.22.44.6.3,1.08.68,1.45,1.16s.63,1.03.79,1.64c.16.62.24,1.24.24,1.88,0,.88-.13,1.65-.4,2.3-.26.66-.63,1.19-1.1,1.61-.47.42-1.04.73-1.72.94-.67.21-1.42.31-2.23.31h-1.85v6.84h-3.46v-17.14h6.05ZM156.36,46.62c.69,0,1.24-.21,1.67-.62s.64-1.06.64-1.95-.18-1.52-.55-1.97c-.37-.45-.98-.67-1.85-.67h-1.44v5.21h1.54Z"/><path class="cls-2" d="M167.16,38.87v17.14h-3.31v-17.14h3.31Z"/><path class="cls-2" d="M172.32,51.09c0,.38.03.76.08,1.12.06.36.15.68.28.96.13.28.3.5.5.67s.46.25.77.25c.56,0,.97-.2,1.22-.6.26-.4.43-1.01.53-1.82h2.98c-.06,1.5-.46,2.65-1.2,3.43-.74.78-1.9,1.18-3.48,1.18-1.2,0-2.14-.2-2.81-.6-.67-.4-1.17-.93-1.49-1.58-.32-.66-.52-1.39-.59-2.21-.07-.82-.11-1.63-.11-2.45,0-.86.06-1.7.18-2.5.12-.8.36-1.51.72-2.14.36-.62.88-1.12,1.55-1.49.67-.37,1.57-.55,2.69-.55.96,0,1.75.16,2.36.47.62.31,1.1.75,1.45,1.32.35.57.59,1.26.72,2.06.13.81.19,1.71.19,2.7v.74h-6.55v1.03ZM175.61,46.78c-.05-.38-.13-.7-.25-.96-.12-.26-.29-.46-.5-.6-.22-.13-.49-.2-.83-.2s-.61.08-.83.23c-.22.15-.39.35-.52.6s-.22.52-.28.83c-.06.3-.08.61-.08.91v.5h3.38c-.02-.5-.05-.93-.1-1.31Z"/><path class="cls-2" d="M180.57,46.74c0-.75.12-1.38.36-1.88.24-.5.56-.91.97-1.22.41-.31.89-.54,1.44-.67.55-.13,1.14-.2,1.76-.2.99,0,1.79.1,2.4.29.61.19,1.08.46,1.42.82s.56.77.68,1.26c.12.49.18,1.02.18,1.6v6.79c0,.61.03,1.08.08,1.42s.16.7.32,1.08h-3.17c-.11-.21-.2-.43-.25-.66-.06-.23-.11-.46-.16-.68h-.05c-.38.67-.83,1.11-1.33,1.31-.5.2-1.16.3-1.96.3-.58,0-1.06-.1-1.46-.3-.4-.2-.72-.47-.96-.83-.24-.35-.42-.75-.53-1.19-.11-.44-.17-.88-.17-1.31,0-.61.06-1.13.19-1.57s.32-.82.59-1.13c.26-.31.6-.57,1.01-.78.41-.21.9-.39,1.48-.55l1.87-.5c.5-.13.84-.3,1.03-.53.19-.22.29-.55.29-.98,0-.5-.12-.88-.35-1.16s-.63-.42-1.19-.42c-.51,0-.9.15-1.15.46-.26.3-.38.71-.38,1.22v.36h-2.98v-.31ZM185.9,49.97c-.26.11-.49.18-.7.23-.67.14-1.15.38-1.44.72s-.43.79-.43,1.37c0,.5.1.92.29,1.27.19.35.51.53.96.53.22,0,.46-.04.7-.11.24-.07.46-.19.66-.35.2-.16.36-.37.49-.62.13-.26.19-.56.19-.91v-2.54c-.22.18-.46.32-.72.42Z"/><path class="cls-2" d="M194.56,52.21c0,.56.15,1.01.44,1.36.3.34.72.52,1.28.52.51,0,.92-.13,1.22-.38.3-.26.46-.64.46-1.15,0-.42-.12-.73-.36-.95-.24-.22-.52-.39-.84-.52l-2.33-.84c-.91-.32-1.6-.77-2.06-1.36-.46-.58-.7-1.33-.7-2.24,0-.53.09-1.03.26-1.5.18-.47.46-.88.84-1.24.38-.35.88-.63,1.48-.84s1.32-.31,2.17-.31c1.5,0,2.62.32,3.34.96.72.64,1.08,1.54,1.08,2.71v.53h-2.98c0-.67-.11-1.16-.32-1.48-.22-.31-.6-.47-1.14-.47-.42,0-.78.12-1.09.35s-.47.58-.47,1.04c0,.32.1.61.3.86.2.26.58.47,1.14.65l1.99.67c1.04.35,1.78.81,2.21,1.38.43.57.65,1.34.65,2.32,0,.69-.12,1.28-.36,1.79-.24.5-.57.92-1,1.26-.42.34-.93.58-1.51.72-.58.14-1.23.22-1.93.22-.93,0-1.7-.09-2.32-.26s-1.1-.44-1.46-.79c-.36-.35-.61-.78-.76-1.28s-.22-1.07-.22-1.69v-.46h2.98v.43Z"/><path class="cls-2" d="M205.63,51.09c0,.38.03.76.08,1.12.06.36.15.68.28.96.13.28.3.5.5.67s.46.25.77.25c.56,0,.97-.2,1.22-.6.26-.4.43-1.01.53-1.82h2.98c-.06,1.5-.46,2.65-1.2,3.43-.74.78-1.9,1.18-3.48,1.18-1.2,0-2.14-.2-2.81-.6-.67-.4-1.17-.93-1.49-1.58-.32-.66-.52-1.39-.59-2.21-.07-.82-.11-1.63-.11-2.45,0-.86.06-1.7.18-2.5.12-.8.36-1.51.72-2.14.36-.62.88-1.12,1.55-1.49.67-.37,1.57-.55,2.69-.55.96,0,1.75.16,2.36.47.62.31,1.1.75,1.45,1.32.35.57.59,1.26.72,2.06.13.81.19,1.71.19,2.7v.74h-6.55v1.03ZM208.92,46.78c-.05-.38-.13-.7-.25-.96-.12-.26-.29-.46-.5-.6-.22-.13-.49-.2-.83-.2s-.61.08-.83.23c-.22.15-.39.35-.52.6s-.22.52-.28.83c-.06.3-.08.61-.08.91v.5h3.38c-.02-.5-.05-.93-.1-1.31Z"/><path class="cls-2" d="M226.64,41.93c-.3-.57-.84-.85-1.62-.85-.43,0-.79.12-1.07.35-.28.23-.5.61-.66,1.13-.16.52-.27,1.2-.34,2.04-.06.84-.1,1.87-.1,3.08,0,1.29.04,2.34.13,3.14.09.8.22,1.42.41,1.86.18.44.42.74.7.89.28.15.6.23.97.23.3,0,.59-.05.85-.16s.49-.31.68-.62.34-.75.46-1.32c.11-.57.17-1.32.17-2.24h3.46c0,.93-.07,1.81-.22,2.64s-.41,1.56-.8,2.18c-.39.62-.94,1.11-1.66,1.46-.71.35-1.64.53-2.77.53-1.3,0-2.33-.21-3.1-.62-.77-.42-1.36-1.02-1.76-1.8-.41-.78-.67-1.72-.79-2.81s-.18-2.29-.18-3.6.06-2.49.18-3.59.38-2.04.79-2.82c.41-.78,1-1.4,1.76-1.84.77-.44,1.8-.66,3.1-.66s2.2.2,2.92.6c.71.4,1.24.91,1.6,1.52.35.62.57,1.28.66,1.99.09.71.13,1.38.13,2h-3.46c0-1.25-.15-2.16-.44-2.72Z"/><path class="cls-2" d="M232.39,46.62c.18-.85.46-1.56.86-2.12.4-.57.92-1,1.57-1.3.65-.3,1.44-.44,2.39-.44.99-.02,1.82.12,2.47.4.66.28,1.18.71,1.56,1.28s.66,1.29.82,2.14c.16.85.24,1.84.24,2.98s-.09,2.08-.26,2.93c-.18.85-.46,1.56-.86,2.12-.4.57-.92.99-1.57,1.26s-1.44.41-2.39.41c-.99.02-1.82-.11-2.47-.37-.66-.26-1.18-.68-1.56-1.25s-.66-1.28-.82-2.14c-.16-.86-.24-1.84-.24-2.96s.09-2.08.26-2.93ZM235.48,51.37c.03.56.11,1.04.23,1.44.12.4.3.71.54.94.24.22.56.34.96.34.67,0,1.14-.35,1.39-1.06.26-.7.38-1.86.38-3.48s-.13-2.78-.38-3.48-.72-1.06-1.39-1.06c-.4,0-.72.11-.96.34-.24.22-.42.54-.54.94-.12.4-.2.88-.23,1.44-.03.56-.05,1.17-.05,1.82s.02,1.26.05,1.82Z"/><path class="cls-2" d="M247.24,43.09v1.51h.05c.35-.64.81-1.11,1.37-1.4.56-.3,1.2-.44,1.92-.44,1.06,0,1.87.29,2.44.86s.85,1.51.85,2.81v9.58h-3.31v-8.9c0-.67-.11-1.14-.34-1.4-.22-.26-.58-.4-1.08-.4-1.17,0-1.75.71-1.75,2.14v8.57h-3.31v-12.91h3.17Z"/><path class="cls-2" d="M258.5,52.21c0,.56.15,1.01.44,1.36.3.34.72.52,1.28.52.51,0,.92-.13,1.22-.38.3-.26.46-.64.46-1.15,0-.42-.12-.73-.36-.95-.24-.22-.52-.39-.84-.52l-2.33-.84c-.91-.32-1.6-.77-2.06-1.36-.46-.58-.7-1.33-.7-2.24,0-.53.09-1.03.26-1.5.18-.47.46-.88.84-1.24.38-.35.88-.63,1.48-.84s1.32-.31,2.17-.31c1.5,0,2.62.32,3.34.96.72.64,1.08,1.54,1.08,2.71v.53h-2.98c0-.67-.11-1.16-.32-1.48-.22-.31-.6-.47-1.14-.47-.42,0-.78.12-1.09.35s-.47.58-.47,1.04c0,.32.1.61.3.86.2.26.58.47,1.14.65l1.99.67c1.04.35,1.78.81,2.21,1.38.43.57.65,1.34.65,2.32,0,.69-.12,1.28-.36,1.79-.24.5-.57.92-1,1.26-.42.34-.93.58-1.51.72-.58.14-1.23.22-1.93.22-.93,0-1.7-.09-2.32-.26s-1.1-.44-1.46-.79c-.36-.35-.61-.78-.76-1.28s-.22-1.07-.22-1.69v-.46h2.98v.43Z"/><path class="cls-2" d="M270.16,38.68v2.83h-3.31v-2.83h3.31ZM270.16,43.09v12.91h-3.31v-12.91h3.31Z"/><path class="cls-2" d="M279.07,54.64c-.37.61-.78,1.03-1.24,1.27-.46.24-1.02.36-1.69.36-1.36,0-2.36-.52-3-1.56-.64-1.04-.96-2.76-.96-5.16s.32-4.13.96-5.2c.64-1.06,1.64-1.6,3-1.6.62,0,1.16.13,1.6.38.44.26.84.64,1.19,1.15h.05v-5.42h3.31v17.14h-3.17v-1.37h-.05ZM275.82,52.73c.22.71.68,1.07,1.4,1.07s1.21-.36,1.43-1.07c.22-.71.32-1.77.32-3.18s-.11-2.47-.32-3.18c-.22-.71-.69-1.07-1.43-1.07s-1.19.36-1.4,1.07c-.22.71-.32,1.77-.32,3.18s.11,2.47.32,3.18Z"/><path class="cls-2" d="M287.32,51.09c0,.38.03.76.08,1.12.06.36.15.68.28.96.13.28.3.5.5.67s.46.25.77.25c.56,0,.97-.2,1.22-.6.26-.4.43-1.01.53-1.82h2.98c-.06,1.5-.46,2.65-1.2,3.43-.74.78-1.9,1.18-3.48,1.18-1.2,0-2.14-.2-2.81-.6-.67-.4-1.17-.93-1.49-1.58-.32-.66-.52-1.39-.59-2.21-.07-.82-.11-1.63-.11-2.45,0-.86.06-1.7.18-2.5.12-.8.36-1.51.72-2.14.36-.62.88-1.12,1.55-1.49.67-.37,1.57-.55,2.69-.55.96,0,1.75.16,2.36.47.62.31,1.1.75,1.45,1.32.35.57.59,1.26.72,2.06.13.81.19,1.71.19,2.7v.74h-6.55v1.03ZM290.61,46.78c-.05-.38-.13-.7-.25-.96-.12-.26-.29-.46-.5-.6-.22-.13-.49-.2-.83-.2s-.61.08-.83.23c-.22.15-.39.35-.52.6s-.22.52-.28.83c-.06.3-.08.61-.08.91v.5h3.38c-.02-.5-.05-.93-.1-1.31Z"/><path class="cls-2" d="M298.77,43.09v1.73h.05c.34-.62.74-1.12,1.22-1.5s1.06-.56,1.75-.56c.1,0,.2,0,.3.01.1,0,.2.02.3.04v3.17c-.18-.02-.35-.03-.52-.04s-.34-.01-.52-.01c-.29,0-.58.04-.86.12s-.55.21-.79.4-.43.42-.58.72-.22.66-.22,1.09v7.75h-3.31v-12.91h3.17Z"/><path class="cls-2" d="M309.33,46.74c0-.75.12-1.38.36-1.88.24-.5.56-.91.97-1.22.41-.31.89-.54,1.44-.67.55-.13,1.14-.2,1.76-.2.99,0,1.79.1,2.4.29.61.19,1.08.46,1.42.82s.56.77.68,1.26c.12.49.18,1.02.18,1.6v6.79c0,.61.03,1.08.08,1.42s.16.7.32,1.08h-3.17c-.11-.21-.2-.43-.25-.66-.06-.23-.11-.46-.16-.68h-.05c-.38.67-.83,1.11-1.33,1.31-.5.2-1.16.3-1.96.3-.58,0-1.06-.1-1.46-.3-.4-.2-.72-.47-.96-.83-.24-.35-.42-.75-.53-1.19-.11-.44-.17-.88-.17-1.31,0-.61.06-1.13.19-1.57s.32-.82.59-1.13c.26-.31.6-.57,1.01-.78.41-.21.9-.39,1.48-.55l1.87-.5c.5-.13.84-.3,1.03-.53.19-.22.29-.55.29-.98,0-.5-.12-.88-.35-1.16s-.63-.42-1.19-.42c-.51,0-.9.15-1.15.46-.26.3-.38.71-.38,1.22v.36h-2.98v-.31ZM314.66,49.97c-.26.11-.49.18-.7.23-.67.14-1.15.38-1.44.72s-.43.79-.43,1.37c0,.5.1.92.29,1.27.19.35.51.53.96.53.22,0,.46-.04.7-.11.24-.07.46-.19.66-.35.2-.16.36-.37.49-.62.13-.26.19-.56.19-.91v-2.54c-.22.18-.46.32-.72.42Z"/><path class="cls-2" d="M331.96,38.87l2.45,12.1h.05l2.47-12.1h5.11v17.14h-3.17v-13.68h-.05l-3.05,13.68h-2.69l-3.05-13.68h-.05v13.68h-3.17v-17.14h5.14Z"/><path class="cls-2" d="M344.25,46.62c.18-.85.46-1.56.86-2.12.4-.57.92-1,1.57-1.3.65-.3,1.44-.44,2.39-.44.99-.02,1.82.12,2.47.4.66.28,1.18.71,1.56,1.28s.66,1.29.82,2.14c.16.85.24,1.84.24,2.98s-.09,2.08-.26,2.93c-.18.85-.46,1.56-.86,2.12-.4.57-.92.99-1.57,1.26s-1.44.41-2.39.41c-.99.02-1.82-.11-2.47-.37-.66-.26-1.18-.68-1.56-1.25s-.66-1.28-.82-2.14c-.16-.86-.24-1.84-.24-2.96s.09-2.08.26-2.93ZM347.35,51.37c.03.56.11,1.04.23,1.44.12.4.3.71.54.94.24.22.56.34.96.34.67,0,1.14-.35,1.39-1.06.26-.7.38-1.86.38-3.48s-.13-2.78-.38-3.48-.72-1.06-1.39-1.06c-.4,0-.72.11-.96.34-.24.22-.42.54-.54.94-.12.4-.2.88-.23,1.44-.03.56-.05,1.17-.05,1.82s.02,1.26.05,1.82Z"/><path class="cls-2" d="M359.11,43.09v1.51h.05c.35-.64.81-1.11,1.37-1.4.56-.3,1.2-.44,1.92-.44,1.06,0,1.87.29,2.44.86s.85,1.51.85,2.81v9.58h-3.31v-8.9c0-.67-.11-1.14-.34-1.4-.22-.26-.58-.4-1.08-.4-1.17,0-1.75.71-1.75,2.14v8.57h-3.31v-12.91h3.17Z"/><path class="cls-2" d="M371.97,39.4v3.7h1.92v2.26h-1.92v6.98c0,.51.08.88.23,1.09.15.22.47.32.95.32.13,0,.26,0,.38-.01.13,0,.25-.02.36-.04v2.3c-.37,0-.72.01-1.07.04-.34.02-.71.04-1.09.04-.64,0-1.16-.04-1.57-.13-.41-.09-.72-.26-.94-.53-.22-.26-.36-.61-.44-1.04s-.12-.98-.12-1.63v-7.39h-1.68v-2.26h1.68v-3.7h3.31Z"/><path class="cls-2" d="M378.35,38.87v5.54h.05c.64-1.1,1.69-1.66,3.14-1.66,1.06,0,1.87.29,2.44.86s.85,1.51.85,2.81v9.58h-3.31v-8.9c0-.67-.11-1.14-.34-1.4-.22-.26-.58-.4-1.08-.4-1.17,0-1.75.71-1.75,2.14v8.57h-3.31v-17.14h3.31Z"/><path class="cls-2" d="M390.47,38.87v17.14h-3.31v-17.14h3.31Z"/><path class="cls-2" d="M393.67,57.76c.61,0,1.04-.16,1.31-.48.26-.32.42-.74.47-1.27l-3.62-12.91h3.46l1.92,8.93h.05l1.68-8.93h3.31l-3.12,12.05c-.29,1.07-.56,1.94-.83,2.6-.26.66-.58,1.18-.94,1.54-.36.36-.79.6-1.3.71s-1.14.17-1.91.17h-1.34v-2.47c.29.05.58.07.86.07Z"/><path class="cls-2" d="M416.19,41.93c-.3-.57-.84-.85-1.62-.85-.43,0-.79.12-1.07.35-.28.23-.5.61-.66,1.13-.16.52-.27,1.2-.34,2.04-.06.84-.1,1.87-.1,3.08,0,1.29.04,2.34.13,3.14.09.8.22,1.42.41,1.86.18.44.42.74.7.89.28.15.6.23.97.23.3,0,.59-.05.85-.16s.49-.31.68-.62.34-.75.46-1.32c.11-.57.17-1.32.17-2.24h3.46c0,.93-.07,1.81-.22,2.64s-.41,1.56-.8,2.18c-.39.62-.94,1.11-1.66,1.46-.71.35-1.64.53-2.77.53-1.3,0-2.33-.21-3.1-.62-.77-.42-1.36-1.02-1.76-1.8-.41-.78-.67-1.72-.79-2.81s-.18-2.29-.18-3.6.06-2.49.18-3.59.38-2.04.79-2.82c.41-.78,1-1.4,1.76-1.84.77-.44,1.8-.66,3.1-.66s2.2.2,2.92.6c.71.4,1.24.91,1.6,1.52.35.62.57,1.28.66,1.99.09.71.13,1.38.13,2h-3.46c0-1.25-.15-2.16-.44-2.72Z"/><path class="cls-2" d="M421.94,46.62c.18-.85.46-1.56.86-2.12.4-.57.92-1,1.57-1.3.65-.3,1.44-.44,2.39-.44.99-.02,1.82.12,2.47.4.66.28,1.18.71,1.56,1.28.38.58.66,1.29.82,2.14.16.85.24,1.84.24,2.98s-.09,2.08-.26,2.93c-.18.85-.46,1.56-.86,2.12-.4.57-.92.99-1.57,1.26s-1.44.41-2.39.41c-.99.02-1.82-.11-2.47-.37-.66-.26-1.18-.68-1.56-1.25s-.66-1.28-.82-2.14c-.16-.86-.24-1.84-.24-2.96s.09-2.08.26-2.93ZM425.03,51.37c.03.56.11,1.04.23,1.44.12.4.3.71.54.94.24.22.56.34.96.34.67,0,1.14-.35,1.39-1.06.26-.7.38-1.86.38-3.48s-.13-2.78-.38-3.48-.72-1.06-1.39-1.06c-.4,0-.72.11-.96.34s-.42.54-.54.94c-.12.4-.2.88-.23,1.44-.03.56-.05,1.17-.05,1.82s.02,1.26.05,1.82Z"/><path class="cls-2" d="M436.79,43.09v1.51h.05c.35-.64.81-1.11,1.37-1.4.56-.3,1.2-.44,1.92-.44,1.06,0,1.87.29,2.44.86s.85,1.51.85,2.81v9.58h-3.31v-8.9c0-.67-.11-1.14-.34-1.4-.22-.26-.58-.4-1.08-.4-1.17,0-1.75.71-1.75,2.14v8.57h-3.31v-12.91h3.17Z"/><path class="cls-2" d="M449.66,39.4v3.7h1.92v2.26h-1.92v6.98c0,.51.08.88.23,1.09.15.22.47.32.95.32.13,0,.26,0,.38-.01.13,0,.25-.02.36-.04v2.3c-.37,0-.72.01-1.07.04-.34.02-.71.04-1.09.04-.64,0-1.16-.04-1.57-.13s-.72-.26-.94-.53c-.22-.26-.37-.61-.45-1.04s-.12-.98-.12-1.63v-7.39h-1.68v-2.26h1.68v-3.7h3.31Z"/><path class="cls-2" d="M455.9,43.09v1.73h.05c.34-.62.74-1.12,1.22-1.5s1.06-.56,1.75-.56c.1,0,.2,0,.3.01s.2.02.3.04v3.17c-.18-.02-.35-.03-.52-.04s-.34-.01-.52-.01c-.29,0-.58.04-.86.12s-.55.21-.79.4-.43.42-.58.72-.22.66-.22,1.09v7.75h-3.31v-12.91h3.17Z"/><path class="cls-2" d="M464.15,38.68v2.83h-3.31v-2.83h3.31ZM464.15,43.09v12.91h-3.31v-12.91h3.31Z"/><path class="cls-2" d="M469.79,38.87v5.42h.05c.35-.51.75-.9,1.19-1.15s.97-.38,1.6-.38c1.36,0,2.36.53,3,1.6.64,1.06.96,2.8.96,5.2s-.32,4.12-.96,5.16c-.64,1.04-1.64,1.56-3,1.56-.67,0-1.24-.12-1.69-.36-.46-.24-.87-.66-1.24-1.27h-.05v1.37h-3.17v-17.14h3.31ZM470.12,52.73c.21.71.69,1.07,1.43,1.07s1.19-.36,1.4-1.07.32-1.77.32-3.18-.11-2.47-.32-3.18c-.22-.71-.68-1.07-1.4-1.07s-1.21.36-1.43,1.07c-.22.71-.32,1.77-.32,3.18s.11,2.47.32,3.18Z"/><path class="cls-2" d="M485.06,54.49c-.35.64-.81,1.1-1.37,1.37s-1.2.41-1.92.41c-1.06,0-1.87-.28-2.44-.83-.57-.55-.85-1.48-.85-2.77v-9.58h3.31v8.9c0,.67.11,1.14.34,1.4.22.26.58.4,1.08.4,1.17,0,1.75-.71,1.75-2.14v-8.57h3.31v12.91h-3.17v-1.51h-.05Z"/><path class="cls-2" d="M494.51,39.4v3.7h1.92v2.26h-1.92v6.98c0,.51.08.88.23,1.09.15.22.47.32.95.32.13,0,.26,0,.38-.01.13,0,.25-.02.36-.04v2.3c-.37,0-.72.01-1.07.04-.34.02-.71.04-1.09.04-.64,0-1.16-.04-1.57-.13-.41-.09-.72-.26-.94-.53-.22-.26-.36-.61-.44-1.04s-.12-.98-.12-1.63v-7.39h-1.68v-2.26h1.68v-3.7h3.31Z"/><path class="cls-2" d="M501.02,38.68v2.83h-3.31v-2.83h3.31ZM501.02,43.09v12.91h-3.31v-12.91h3.31Z"/><path class="cls-2" d="M503.18,46.62c.18-.85.46-1.56.86-2.12.4-.57.92-1,1.57-1.3.65-.3,1.44-.44,2.39-.44.99-.02,1.82.12,2.47.4.66.28,1.18.71,1.56,1.28s.66,1.29.82,2.14c.16.85.24,1.84.24,2.98s-.09,2.08-.26,2.93-.46,1.56-.86,2.12c-.4.57-.92.99-1.57,1.26-.65.27-1.44.41-2.39.41-.99.02-1.82-.11-2.47-.37-.66-.26-1.18-.68-1.56-1.25-.38-.57-.66-1.28-.82-2.14s-.24-1.84-.24-2.96.09-2.08.26-2.93ZM506.27,51.37c.03.56.11,1.04.23,1.44.12.4.3.71.54.94.24.22.56.34.96.34.67,0,1.14-.35,1.39-1.06.26-.7.38-1.86.38-3.48s-.13-2.78-.38-3.48-.72-1.06-1.39-1.06c-.4,0-.72.11-.96.34-.24.22-.42.54-.54.94-.12.4-.2.88-.23,1.44s-.05,1.17-.05,1.82.02,1.26.05,1.82Z"/><path class="cls-2" d="M518.03,43.09v1.51h.05c.35-.64.81-1.11,1.37-1.4.56-.3,1.2-.44,1.92-.44,1.06,0,1.87.29,2.44.86.57.58.85,1.51.85,2.81v9.58h-3.31v-8.9c0-.67-.11-1.14-.34-1.4-.22-.26-.58-.4-1.08-.4-1.17,0-1.75.71-1.75,2.14v8.57h-3.31v-12.91h3.17Z"/><path class="cls-2" d="M527.66,44.44v-5.57h3.31v5.57l-.46,6.79h-2.4l-.46-6.79ZM530.97,56.01h-3.31v-3.17h3.31v3.17Z"/></svg>